<svg width="27" height="21" viewBox="0 0 27 21" fill="none" xmlns="http://www.w3.org/2000/svg">
<path d="M25.8125 0.174316H1.4375C0.918945 0.174316 0.5 0.593262 0.5 1.11182V19.8618C0.5 20.3804 0.918945 20.7993 1.4375 20.7993H25.8125C26.3311 20.7993 26.75 20.3804 26.75 19.8618V1.11182C26.75 0.593262 26.3311 0.174316 25.8125 0.174316ZM24.6406 3.42041V18.6899H2.60938V3.42041L1.80078 2.79053L2.95215 1.31104L4.20605 2.28662H23.0469L24.3008 1.31104L25.4521 2.79053L24.6406 3.42041ZM23.0469 2.28369L13.625 9.60791L4.20312 2.28369L2.94922 1.30811L1.79785 2.7876L2.60645 3.41748L12.6143 11.1987C12.9021 11.4223 13.2561 11.5437 13.6206 11.5437C13.9851 11.5437 14.3391 11.4223 14.627 11.1987L24.6406 3.42041L25.4492 2.79053L24.2979 1.31104L23.0469 2.28369Z" fill="#FF5722"/>
</svg>
