<svg width="26" height="32" viewBox="0 0 26 32" fill="none" xmlns="http://www.w3.org/2000/svg">
<path d="M12.2487 31.5255C12.5166 31.7169 12.8377 31.8197 13.167 31.8197C13.4963 31.8197 13.8173 31.7169 14.0853 31.5255C14.5667 31.1851 25.8796 23.0167 25.8337 12.82C25.8337 5.8359 20.1511 0.15332 13.167 0.15332C6.18291 0.15332 0.500322 5.8359 0.500322 12.8121C0.454406 23.0167 11.7673 31.1851 12.2487 31.5255ZM13.167 3.31999C18.4062 3.31999 22.667 7.58074 22.667 12.8279C22.7002 19.8547 15.7193 26.1643 13.167 28.2337C10.6162 26.1627 3.63374 19.8516 3.66699 12.82C3.66699 7.58074 7.92774 3.31999 13.167 3.31999Z" fill="#FF5722"/>
</svg>
